<?xml version="1.0" encoding="UTF-8" standalone="no"?>
<!-- Created with Inkscape (http://www.inkscape.org/) -->

<svg
   xmlns:dc="http://purl.org/dc/elements/1.1/"
   xmlns:cc="http://creativecommons.org/ns#"
   xmlns:rdf="http://www.w3.org/1999/02/22-rdf-syntax-ns#"
   xmlns:svg="http://www.w3.org/2000/svg"
   xmlns="http://www.w3.org/2000/svg"
   xmlns:sodipodi="http://sodipodi.sourceforge.net/DTD/sodipodi-0.dtd"
   xmlns:inkscape="http://www.inkscape.org/namespaces/inkscape"
   width="744.09448819"
   height="1052.3622047"
   id="svg2"
   version="1.1"
   inkscape:version="0.48.5 r10040"
   sodipodi:docname="miner.svg"
   inkscape:export-filename="C:\Users\Quinn\Documents\Processing\TinyMiners\data\miner.png"
   inkscape:export-xdpi="90"
   inkscape:export-ydpi="90">
  <defs
     id="defs4" />
  <sodipodi:namedview
     id="base"
     pagecolor="#ffffff"
     bordercolor="#666666"
     borderopacity="1.0"
     inkscape:pageopacity="0.0"
     inkscape:pageshadow="2"
     inkscape:zoom="1.4"
     inkscape:cx="450.44682"
     inkscape:cy="805.10829"
     inkscape:document-units="px"
     inkscape:current-layer="layer1"
     showgrid="false"
     inkscape:window-width="1920"
     inkscape:window-height="1018"
     inkscape:window-x="-8"
     inkscape:window-y="-8"
     inkscape:window-maximized="1" />
  <metadata
     id="metadata7">
    <rdf:RDF>
      <cc:Work
         rdf:about="">
        <dc:format>image/svg+xml</dc:format>
        <dc:type
           rdf:resource="http://purl.org/dc/dcmitype/StillImage" />
        <dc:title></dc:title>
      </cc:Work>
    </rdf:RDF>
  </metadata>
  <g
     inkscape:label="Layer 1"
     inkscape:groupmode="layer"
     id="layer1">
    <rect
       style="fill:#d38d5f;fill-rule:evenodd;stroke:none"
       id="rect2985"
       width="201.50035"
       height="201.50035"
       x="260.59174"
       y="232.78061"
       ry="62.629459" />
    <path
       style="fill:#ffff00"
       d="m 138.68048,340.18896 -0.0789,-1.91666 0.60417,0.60416 0.60416,0.60417 -0.52522,1.3125 -0.52522,1.3125 -0.0789,-1.91667 z"
       id="path3776" />
    <g
       id="g3857">
      <g
         style="fill:#cccccc"
         id="g3825">
        <path
           style="fill:#cccccc;stroke:#000000;stroke-width:1px;stroke-linecap:butt;stroke-linejoin:miter;stroke-opacity:1"
           d="m 297.995,308.38483 c 9.59679,3.86853 19.52928,4.04433 29.7995,0.50508 -1.52854,-5.37095 3.04637,-8.64563 -14.89976,-9.59646 -12.97185,-1.20762 -12.85072,4.51633 -14.89974,9.09138 z"
           id="path3805"
           inkscape:connector-curvature="0"
           sodipodi:nodetypes="cccc" />
        <path
           style="fill:#cccccc;stroke:#000000;stroke-width:1.00808871000000000px;stroke-linecap:butt;stroke-linejoin:miter;stroke-opacity:1"
           d="m 417.92957,309.72638 c -9.75267,3.86853 -19.84649,4.04433 -30.28353,0.50508 1.55337,-5.37095 -3.09585,-8.64563 15.14177,-9.59646 13.18256,-1.20762 13.05945,4.51633 15.14176,9.09138 z"
           id="path3805-1"
           inkscape:connector-curvature="0"
           sodipodi:nodetypes="cccc" />
      </g>
      <g
         id="g3852">
        <g
           id="g3849">
          <path
             d="m 315.42014,306.23825 a 2.6516504,2.6516504 0 1 1 -5.3033,0 2.6516504,2.6516504 0 1 1 5.3033,0 z"
             sodipodi:ry="2.6516504"
             sodipodi:rx="2.6516504"
             sodipodi:cy="306.23825"
             sodipodi:cx="312.76849"
             id="path3829"
             style="fill:#000000;fill-opacity:1;stroke:none"
             sodipodi:type="arc" />
        </g>
        <path
           transform="translate(90.282373,1.8940431)"
           sodipodi:type="arc"
           style="fill:#000000;fill-opacity:1;stroke:none"
           id="path3829-7"
           sodipodi:cx="312.76849"
           sodipodi:cy="306.23825"
           sodipodi:rx="2.6516504"
           sodipodi:ry="2.6516504"
           d="m 315.42014,306.23825 a 2.6516504,2.6516504 0 1 1 -5.3033,0 2.6516504,2.6516504 0 1 1 5.3033,0 z" />
      </g>
    </g>
    <path
       style="fill:#552200;stroke:#000000;stroke-width:1px;stroke-linecap:butt;stroke-linejoin:miter;stroke-opacity:1"
       d="m 358.92857,330.57647 7.5,21.42857 -9.28571,0.35714 -1.07143,-3.92857 6.07143,1.07143 -5.35715,-15.71429 z"
       id="path3866"
       inkscape:connector-curvature="0" />
    <path
       sodipodi:type="arc"
       style="fill:#552200;fill-opacity:1;stroke:none"
       id="path3868"
       sodipodi:cx="370.53571"
       sodipodi:cy="351.46933"
       sodipodi:rx="1.6071428"
       sodipodi:ry="4.1071429"
       d="m 371.50078,354.75353 a 1.6071428,4.1071429 0 1 1 -0.86393,-7.3832 l -0.10114,4.099 z"
       sodipodi:start="0.92668037"
       sodipodi:end="4.7753647"
       transform="matrix(-0.930337,-0.36670569,0.36670569,-0.930337,585.5006,813.20414)"
       inkscape:transform-center-x="-1.8598776" />
    <path
       style="fill:#b3b3b3;fill-rule:evenodd;stroke:none"
       d="m 260.66964,299.71429 0,73.625 c 0,34.69672 27.92828,62.625 62.625,62.625 l 76.25,0 c 34.69672,0 62.625,-27.92828 62.625,-62.625 l 0,-64.5 -26.8125,71.375 -38.9375,-9.28125 -60.71875,1.4375 -36.40625,11.78125 -38.625,-84.4375 z"
       id="rect2985-9"
       inkscape:connector-curvature="0" />
    <g
       id="g3798"
       transform="matrix(0.30686182,0,0,0.30686182,105.48996,179.35257)">
      <path
         inkscape:connector-curvature="0"
         id="path3788"
         d="m 1224.3501,469.52468 c 2.2417,-1.52371 6.6037,-5.50076 9.6933,-8.83789 l 5.6174,-6.06752 3.5665,-7.25429 3.5664,-7.2543 3.4539,-15 3.454,-15 2.0115,-14 2.0115,-14 0.9707,-14.65425 0.9707,-14.65424 -1.0401,-3.76695 -1.0401,-3.76695 -2.8288,-2.82881 -2.8288,-2.8288 -1.585,0 -1.5849,0 -23.984,12 c -20.4408,10.22722 -27.0049,13.08393 -26.9988,11.75 6e-4,-0.1375 0.9001,-7.225 1.9988,-15.75 1.0988,-8.525 1.9983,-15.79358 1.9989,-16.15239 6e-4,-0.35882 -7.1257,-4.51177 -15.8364,-9.22877 l -15.8374,-8.57638 -9.6121,-47.77123 -9.612,-47.77123 -3.4561,-12.50566 c -1.9009,-6.87812 -5.5565,-18.35312 -8.1236,-25.5 l -4.6675,-12.99434 -7.42,-15.07062 -7.4199,-15.07063 -8.5751,-12.92937 c -18.7688,-28.299288 -38.2363,-48.749568 -65.9388,-69.267638 l -11,-8.14723 -13.1653,-7.82217 c -7.2409,-4.30219 -18.7819,-10.486371 -25.64666,-13.742621 l -12.48142,-5.92046 -6.11808,-19.14929699 -6.11808,-19.14930001 -15.59974,-5.33883 c -8.57986,-2.93635 -16.15881,-5.80075 -16.84212,-6.36533 l -1.24239,-1.0265 -4.22783,-29 -4.22783,-29 -2.66526,-5 -2.66527,-5 -25.5,-3.078374 -25.5,-3.07837 -57.269,2.68071 c -31.49795,1.47438 -57.4977,2.90941 -57.77724,3.18894 -0.27953,0.279527 -4.30871,17.733721 -8.95375,38.787094 -4.64504,21.053373 -8.66647,38.4998 -8.93651,38.76985 -0.27004,0.27004 -6.97421,0.81983 -14.89814,1.22176 -7.92394,0.40193 -14.84094,0.99888 -15.37113,1.32655 -0.53018,0.32767 -5.17574,9.66282 -10.32345,20.74477001 l -9.35949,20.14899699 -1.05564,0.28576 c -6.13258,1.66006 -21.3353,7.85995 -30.73856,12.535641 l -11.68292,5.80923 -8.31708,5.51038 c -4.5744,3.03071 -11.94159,8.42741 -16.37155,11.99267 l -8.05446,6.4823 -8.66676,9.10728 c -13.97688,14.68731 -28.45177,34.971248 -44.65625,62.577648 l -8.21022,13.98716 -9.34314,19 -9.34314,19 -6.00579,15.00205 c -11.45428,28.61202 -19.71616,55.21574 -26.25196,84.53276 l -3.24033,14.53482 -15.08674,6.0089 -15.08675,6.00891 -0.27063,20.81752 -0.27062,20.81751 -2.00006,-0.52302 c -1.10004,-0.28767 -12.92899,-4.88756 -26.28658,-10.22198 l -24.28651,-9.69895 -5.07224,2.18202 -5.07225,2.18202 -0.70487,25.17872 -0.70486,25.17872 1.08987,10.5 c 0.59943,5.775 1.8096,14.775 2.68927,20 l 1.5994,9.5 3.31568,11.5 c 1.82362,6.325 4.73099,15.18686 6.46081,19.69301 l 3.14514,8.19302 17.18423,-6.05173 17.18422,-6.05174 36.5,-10.42926 36.5,-10.42927 23.5,-3.91352 c 56.65925,-9.43562 114.11756,-15.40389 173.50001,-18.02167 l 22,-0.96983 40.99999,0.008 41,0.008 20.5,0.95973 c 96.79634,4.53163 180.80428,16.60833 274.56128,39.46998 31.6116,7.70816 84.7949,22.55718 86.3459,24.10818 0.4736,0.47361 7.4749,-3.4499 13.6686,-7.65985 z"
         style="fill:#000000" />
      <path
         inkscape:connector-curvature="0"
         id="path3784"
         d="m 1219.4331,421.91367 c 7.804,-21.28894 14.0784,-38.81788 13.9431,-38.95321 -0.1353,-0.13532 -1.8547,0.8471 -3.8209,2.18315 -10.8972,7.40488 -28.0873,14.35494 -42.0618,17.00585 l -7.9706,1.51199 -13.6395,-0.0302 -13.6395,-0.0302 -9.3482,-1.82726 -9.3482,-1.82726 -6.6148,-6.61473 -6.6147,-6.61473 3.4126,-6.38715 3.4126,-6.38715 19.3514,-0.52506 c 10.6433,-0.28878 19.5776,-0.7512 19.854,-1.0276 0.2764,-0.27641 1.7971,-6.72195 3.3795,-14.32342 l 2.8769,-13.82087 -0.5409,-0.87526 -0.541,-0.87526 -1.8454,3.03454 -1.8454,3.03453 -3.0999,1.60303 -3.0999,1.60302 -6.6943,-4.19079 c -3.6819,-2.30493 -6.8593,-4.33188 -7.0608,-4.50433 -0.7528,-0.64392 -4.071,-21.11448 -5.6363,-34.77046 -7.5972,-66.28154 -29.6028,-124.19229 -65.3501,-171.97767 -11.7579,-15.71742 -17.4408,-22.2794 -32.4757,-37.498757 l -13.1714,-13.33307 -11,-9.2459 c -6.05,-5.08525 -15.7048,-12.47699 -21.45516,-16.42609 l -10.45513,-7.18019 -0.8845,1.5805 -0.88449,1.58051 0.81224,26.67863 c 0.44674,14.67325 0.82457,27.128637 0.83963,27.678637 l 0.0274,1 -7.85628,-0.18962 c -4.32096,-0.10428 -8.01073,-0.34405 -8.19949,-0.53282 -0.18877,-0.18877 -5.92766,-24.077657 -12.7531,-53.086427 -6.82544,-29.00877 -12.60878,-52.9421077 -12.85187,-53.1852077 -0.2431,-0.24309 -2.15044,-1.15582 -4.23854,-2.02828 l -3.79655,-1.58630004 0.84791,62.80432774 c 0.46636,34.54238 0.84792,69.324417 0.84792,77.293417 l 0,14.48909 -4.79945,0.87813 -4.79945,0.87812 -0.56831,-0.56831 c -0.31257,-0.31257 -2.73102,-13.52781 -5.37432,-29.36721 C 914.83294,67.820163 908.61114,6.4896353 907.10503,-46.502695 l -0.67256,-23.66415 -6.59429,-0.59278 c -3.62686,-0.32603 -25.42714,-1.73574 -48.44507,-3.13269 l -41.85077,-2.5399 -16.5347,1.57172 -16.53471,1.57173 -4.0542,2.7251 -4.05423,2.72511 -17.06031,109.995708 -17.06032,109.995707 -3.98586,1.30575 c -2.19223,0.71816 -5.79223,1.54535 -8,1.83819 l -4.01414,0.53244 -3.78393,-3.91081 -3.78394,-3.91082 8.52037,-65.423077 c 4.6862,-35.9827 8.77565,-66.905788 9.08767,-68.717978 l 0.5673,-3.2949 -7.17031,0.2949 -7.1703,0.29489 -9.90344,33.853118 c -5.44688,18.61921 -10.36058,34.70732 -10.91933,35.75135 l -1.0159,1.89823 -5.00159,2.53449 -5.00159,2.5345 -1.2125,-0.72563 c -0.66688,-0.3991 -3.38942,-2.55273 -6.05009,-4.78585 l -4.83757,-4.06021 0.49425,-7.7681 0.49426,-7.7681 -6.15668,5.22632 c -3.38617,2.87447 -14.06651,13.12012 -23.73407,22.7681 l -17.5774,17.541777 -9.49846,11.5 c -23.63936,28.62071 -39.13493,52.52164 -56.0801,86.5 -18.20507,36.50469 -32.83469,84.04479 -38.80166,126.08905 -0.6314,4.44898 -1.44432,8.49898 -1.8065,9 -0.8225,1.13785 -7.81055,4.41096 -9.41732,4.41096 l -1.19098,0 -6.56986,-6.51952 -6.56987,-6.51953 -3.45523,1.15601 c -1.90038,0.6358 -3.83469,1.49655 -4.29848,1.91278 l -0.84326,0.75677 3.77661,13.35674 c 2.07714,7.34621 4.1303,13.59978 4.56259,13.89681 0.43228,0.29703 4.80434,1.39146 9.71569,2.43205 l 8.92971,1.89199 3.10096,5.11655 3.10095,5.11655 0,1.75106 c 0,0.96308 -0.66631,3.03956 -1.48069,4.61439 l -1.48069,2.86334 -4.76931,1.01861 c -2.62312,0.56024 -8.63392,1.33036 -13.35734,1.71139 l -8.58803,0.69276 -10.30371,-1.19787 -10.30371,-1.19787 -8.60276,-2.49298 -8.60276,-2.49298 -8.40754,-3.9399 c -4.62415,-2.16695 -11.25284,-5.73688 -14.73043,-7.93318 l -6.32289,-3.99326 0.48727,2.74964 c 0.26799,1.51231 2.71669,19.57213 5.44156,40.13295 2.72486,20.56081 5.12007,37.54908 5.32269,37.7517 0.20263,0.20262 8.43014,-2.71646 18.28337,-6.48684 84.44336,-32.31259 164.52322,-49.59867 255.41497,-55.13401 l 16.5,-1.00486 31.21636,-0.005 31.21637,-0.005 17.78363,1.08093 c 19.79348,1.20309 18.85646,1.1116 141.66226,13.83216 l 87.87861,9.10271 13.6214,2.06802 c 42.1212,6.39493 81.8891,17.15089 122.1214,33.02994 9.625,3.79884 21.55,8.88959 26.5,11.31278 4.95,2.42319 9.225,4.43438 9.5,4.46932 0.275,0.0349 6.8851,-17.3547 14.6892,-38.64364 z"
         style="fill:#ffff00" />
      <path
         inkscape:connector-curvature="0"
         id="path3780"
         d="m 1073.7012,385.20598 c -0.2292,-0.22816 -19.2055,-5.87038 -42.1695,-12.53825 l -41.75285,-12.12341 -12.74718,-2.49741 c -46.21199,-9.05377 -93.39628,-14.82793 -143.24719,-17.52984 l -21.5,-1.1653 -40,0.56589 -40,0.56588 -18.5,1.59343 c -42.06849,3.62342 -76.14775,8.21089 -108.62691,14.62247 l -5.12692,1.01208 1.49718,5.94352 1.49718,5.94353 2.12973,-0.45915 c 6.39252,-1.37814 72.85286,-5.25103 113.62974,-6.62163 l 34.5,-1.15961 48,0.60894 48,0.60895 27.5,1.51465 c 46.77313,2.57619 82.9982,5.7912 125.00002,11.09389 20.6749,2.61019 57.8049,8.01338 64.5,9.38609 4.608,0.94479 8.0212,1.23715 7.4167,0.63528 z"
         style="fill:#4d4d4d" />
      <path
         sodipodi:nodetypes="cccccc"
         inkscape:connector-curvature="0"
         id="path3794"
         d="m 713.1677,9.8847554 16.92005,0.7576136 -18.18274,138.390891 7.57614,6.06092 -9.59645,128.28937 c -9.30227,-69.10128 -36.25836,-149.97044 3.283,-273.4987946 z"
         style="fill:#cccc00;fill-opacity:1;stroke:none" />
      <path
         sodipodi:nodetypes="ccccc"
         inkscape:connector-curvature="0"
         id="path3796"
         d="m 936.55112,1.1648644 10.85914,4.04061 20.96067,88.6408866 C 968.94436,170.26813 953.81949,216.11955 942.3595,269.10783 z"
         style="fill:#cccc00;fill-opacity:1;stroke:none" />
    </g>
    <path
       sodipodi:type="arc"
       style="fill:#552200;fill-opacity:1;stroke:none"
       id="path3868-4"
       sodipodi:cx="370.53571"
       sodipodi:cy="351.46933"
       sodipodi:rx="1.6071428"
       sodipodi:ry="4.1071429"
       d="m 371.50078,354.75353 a 1.6071428,4.1071429 0 1 1 -0.86393,-7.3832 l -0.10114,4.099 z"
       sodipodi:start="0.92668037"
       sodipodi:end="4.7753647"
       transform="matrix(0.90953422,-0.41562904,0.41562904,0.90953422,-132.41271,184.82125)" />
    <path
       style="fill:#cccccc;stroke:#000000;stroke-width:1px;stroke-linecap:butt;stroke-linejoin:miter;stroke-opacity:1"
       d="m 349.28571,382.00504 26.78572,0 2.5,5.71428 -33.21429,-0.35714 z"
       id="path3890"
       inkscape:connector-curvature="0" />
    <path
       sodipodi:type="arc"
       style="fill:#552200;fill-opacity:1;stroke:none"
       id="path3868-0"
       sodipodi:cx="370.53571"
       sodipodi:cy="351.46933"
       sodipodi:rx="1.6071428"
       sodipodi:ry="4.1071429"
       d="m 371.50078,354.75353 a 1.6071428,4.1071429 0 1 1 -0.86393,-7.3832 l -0.10114,4.099 z"
       sodipodi:start="0.92668037"
       sodipodi:end="4.7753647"
       transform="matrix(-0.930337,-0.36670569,0.36670569,-0.930337,581.28891,883.08217)"
       inkscape:transform-center-x="-1.8598776" />
  </g>
</svg>
