<?xml version="1.0" encoding="UTF-8" standalone="no"?>
<!-- Created with Inkscape (http://www.inkscape.org/) -->

<svg
   xmlns:dc="http://purl.org/dc/elements/1.1/"
   xmlns:cc="http://creativecommons.org/ns#"
   xmlns:rdf="http://www.w3.org/1999/02/22-rdf-syntax-ns#"
   xmlns:svg="http://www.w3.org/2000/svg"
   xmlns="http://www.w3.org/2000/svg"
   xmlns:sodipodi="http://sodipodi.sourceforge.net/DTD/sodipodi-0.dtd"
   xmlns:inkscape="http://www.inkscape.org/namespaces/inkscape"
   width="744.09448819"
   height="1052.3622047"
   id="svg2"
   version="1.1"
   inkscape:version="0.48.5 r10040"
   sodipodi:docname="top of miner.svg">
  <defs
     id="defs4" />
  <sodipodi:namedview
     id="base"
     pagecolor="#ffffff"
     bordercolor="#666666"
     borderopacity="1.0"
     inkscape:pageopacity="0.0"
     inkscape:pageshadow="2"
     inkscape:zoom="1.979899"
     inkscape:cx="333.66093"
     inkscape:cy="681.08212"
     inkscape:document-units="px"
     inkscape:current-layer="layer1"
     showgrid="false"
     inkscape:window-width="1920"
     inkscape:window-height="1018"
     inkscape:window-x="-8"
     inkscape:window-y="-8"
     inkscape:window-maximized="1" />
  <metadata
     id="metadata7">
    <rdf:RDF>
      <cc:Work
         rdf:about="">
        <dc:format>image/svg+xml</dc:format>
        <dc:type
           rdf:resource="http://purl.org/dc/dcmitype/StillImage" />
        <dc:title></dc:title>
      </cc:Work>
    </rdf:RDF>
  </metadata>
  <g
     inkscape:label="Layer 1"
     inkscape:groupmode="layer"
     id="layer1">
    <path
       style="fill:#ffff00;stroke:#000000;stroke-width:1px;stroke-linecap:butt;stroke-linejoin:miter;stroke-opacity:1"
       d="m 162.19978,472.97495 c 38.11195,37.53694 114.83638,34.88038 160.45537,2.82124 41.43795,-29.12088 12.40798,-153.92886 7.1316,-153.78935 -32.94611,0.87112 -12.93438,-40.21165 -41.76986,-41.90872 -35.4931,-2.08889 -69.40932,-2.74727 -91.22952,-0.13996 -26.0319,3.11057 -17.94697,47.07404 -39.50349,43.11576 -3.40811,-0.62581 -30.70278,114.81974 4.9159,149.90103 z"
       id="path2987"
       inkscape:connector-curvature="0"
       sodipodi:nodetypes="asssssa"
       inkscape:export-filename="C:\Users\Quinn\Documents\Processing\TinyMiners\data\miner1.png"
       inkscape:export-xdpi="90"
       inkscape:export-ydpi="90" />
    <path
       style="fill:#999999;stroke:#000000;stroke-width:1px;stroke-linecap:butt;stroke-linejoin:miter;stroke-opacity:1"
       d="m 188.89853,323.53712 c 0.83882,-1.20253 108.08632,-1.51523 108.08632,-1.51523 14.73054,15.33996 -36.94814,19.79926 -57.07362,19.69798 -18.05188,-0.0908 -61.34046,-3.3768 -51.0127,-18.18275 z"
       id="path2989"
       inkscape:connector-curvature="0"
       sodipodi:nodetypes="ssss"
       inkscape:export-filename="C:\Users\Quinn\Documents\Processing\TinyMiners\data\miner1.png"
       inkscape:export-xdpi="90"
       inkscape:export-ydpi="90" />
    <path
       style="fill:#decd87;stroke:#000000;stroke-width:1px;stroke-linecap:butt;stroke-linejoin:miter;stroke-opacity:1"
       d="m 235.36554,356.87215 19.69797,0 2.52538,110.10663 -25.75888,0 z"
       id="path2991"
       inkscape:connector-curvature="0"
       sodipodi:nodetypes="ccccc"
       inkscape:export-filename="C:\Users\Quinn\Documents\Processing\TinyMiners\data\miner1.png"
       inkscape:export-xdpi="90"
       inkscape:export-ydpi="90" />
    <path
       style="fill:#decd87;stroke:#000000;stroke-width:1px;stroke-linecap:butt;stroke-linejoin:miter;stroke-opacity:1"
       d="m 274.00388,354.85185 9.59645,0 c 9.094,28.46293 18.28826,56.78384 11.61675,107.58125 l -7.07106,-4.54569 c 5.59495,-18.98376 10.16867,-56.60951 -14.14214,-103.03556 z"
       id="path2991-1"
       inkscape:connector-curvature="0"
       sodipodi:nodetypes="ccccc"
       inkscape:export-filename="C:\Users\Quinn\Documents\Processing\TinyMiners\data\miner1.png"
       inkscape:export-xdpi="90"
       inkscape:export-ydpi="90" />
    <path
       style="fill:#decd87;stroke:#000000;stroke-width:1.07032824px;stroke-linecap:butt;stroke-linejoin:miter;stroke-opacity:1"
       d="m 216.45165,356.11454 -10.99372,0 c -10.41811,28.46293 -20.95107,56.78384 -13.30818,107.58125 l 8.10063,-4.54569 c -6.40959,-18.98376 -11.64926,-56.60951 16.20127,-103.03556 z"
       id="path2991-1-7"
       inkscape:connector-curvature="0"
       sodipodi:nodetypes="ccccc"
       inkscape:export-filename="C:\Users\Quinn\Documents\Processing\TinyMiners\data\miner1.png"
       inkscape:export-xdpi="90"
       inkscape:export-ydpi="90" />
    <path
       style="fill:#ffeeaa;stroke:#000000;stroke-width:1px;stroke-linecap:butt;stroke-linejoin:miter;stroke-opacity:1"
       d="m 179.30208,344.24525 c -6.12415,18.4385 -13.49699,41.64236 -13.13199,63.13453 0.35015,20.61806 0.28291,45.30903 14.64722,60.10408 13.25845,13.65602 36.01983,15.14715 55.05331,15.15229 24.79222,0.007 54.76893,-1.60689 71.72083,-19.69798 11.98818,-12.7938 10.77741,-33.98584 10.6066,-51.51778 -0.23039,-23.64714 -7.41519,-48.10247 -15.65736,-69.19545 -0.73785,-1.88827 5.09863,-2.28944 6.06091,-0.50507 9.3331,17.30661 15.90297,43.463 16.16244,66.16499 0.21475,18.78945 -4.76351,37.7633 -12.12183,55.05331 -0.95083,2.23419 -2.07165,4.64004 -4.04061,6.06092 -20.66684,14.91402 -48.25528,20.06919 -73.74113,20.20305 -20.54018,0.10788 -45.36101,-0.8523 -59.599,-15.65737 -15.65794,-16.28157 -13.91082,-43.58804 -14.64722,-66.16499 -0.7219,-22.13237 6.05849,-45.70278 10.10153,-65.65991 0.59235,-2.92393 9.52667,-0.30586 8.5863,2.52538 z"
       id="path3029"
       inkscape:connector-curvature="0"
       sodipodi:nodetypes="saaaaassaaaaaass"
       inkscape:export-filename="C:\Users\Quinn\Documents\Processing\TinyMiners\data\miner1.png"
       inkscape:export-xdpi="90"
       inkscape:export-ydpi="90" />
  </g>
</svg>
